<mxfile host="app.diagrams.net" agent="Mozilla/5.0 (Windows NT 10.0; Win64; x64) AppleWebKit/537.36 (KHTML, like Gecko) Chrome/118.0.0.0 Safari/537.36" version="28.1.0">
  <diagram name="第 1 页" id="ZEExV5P48Pws8hLEaL9O">
    <mxGraphModel dx="1210" dy="534" grid="1" gridSize="10" guides="1" tooltips="1" connect="1" arrows="1" fold="1" page="1" pageScale="1" pageWidth="827" pageHeight="1169" math="0" shadow="0">
      <root>
        <mxCell id="0" />
        <mxCell id="1" parent="0" />
        <mxCell id="IjonZkcJv7geGoO6ObHn-82" style="edgeStyle=orthogonalEdgeStyle;rounded=0;orthogonalLoop=1;jettySize=auto;html=1;entryX=0;entryY=0.5;entryDx=0;entryDy=0;" parent="1" source="IjonZkcJv7geGoO6ObHn-72" target="IjonZkcJv7geGoO6ObHn-78" edge="1">
          <mxGeometry relative="1" as="geometry" />
        </mxCell>
        <mxCell id="IjonZkcJv7geGoO6ObHn-72" value="" style="shape=actor;whiteSpace=wrap;html=1;" parent="1" vertex="1">
          <mxGeometry x="243.75" y="100" width="40" height="60" as="geometry" />
        </mxCell>
        <mxCell id="IjonZkcJv7geGoO6ObHn-75" value="客户端" style="text;strokeColor=none;align=center;fillColor=none;html=1;verticalAlign=middle;whiteSpace=wrap;rounded=0;" parent="1" vertex="1">
          <mxGeometry x="246.25" y="162.5" width="37.5" height="20" as="geometry" />
        </mxCell>
        <mxCell id="IjonZkcJv7geGoO6ObHn-78" value="API Gateway&lt;br&gt;Spring Cloud&amp;nbsp;Gateway&lt;br&gt;动态路由" style="rounded=1;whiteSpace=wrap;html=1;" parent="1" vertex="1">
          <mxGeometry x="356.25" y="95" width="140" height="70" as="geometry" />
        </mxCell>
        <mxCell id="Mo8PvDtuYaeKryjOyZzO-46" style="edgeStyle=orthogonalEdgeStyle;rounded=0;orthogonalLoop=1;jettySize=auto;html=1;entryX=0.5;entryY=0;entryDx=0;entryDy=0;" edge="1" parent="1" source="IjonZkcJv7geGoO6ObHn-79" target="IjonZkcJv7geGoO6ObHn-81">
          <mxGeometry relative="1" as="geometry" />
        </mxCell>
        <mxCell id="Mo8PvDtuYaeKryjOyZzO-48" style="edgeStyle=orthogonalEdgeStyle;rounded=0;orthogonalLoop=1;jettySize=auto;html=1;entryX=0.5;entryY=0;entryDx=0;entryDy=0;" edge="1" parent="1" source="IjonZkcJv7geGoO6ObHn-79" target="IjonZkcJv7geGoO6ObHn-91">
          <mxGeometry relative="1" as="geometry">
            <Array as="points">
              <mxPoint x="660" y="220" />
              <mxPoint x="850" y="220" />
            </Array>
          </mxGeometry>
        </mxCell>
        <mxCell id="IjonZkcJv7geGoO6ObHn-79" value="Service Registry&lt;div&gt;Nacos/Consul&lt;br&gt;&lt;/div&gt;" style="whiteSpace=wrap;html=1;shape=mxgraph.basic.document" parent="1" vertex="1">
          <mxGeometry x="610" y="87.5" width="100" height="85" as="geometry" />
        </mxCell>
        <mxCell id="Mo8PvDtuYaeKryjOyZzO-45" style="edgeStyle=orthogonalEdgeStyle;rounded=0;orthogonalLoop=1;jettySize=auto;html=1;entryX=0;entryY=0.5;entryDx=0;entryDy=0;" edge="1" parent="1" source="IjonZkcJv7geGoO6ObHn-81" target="IjonZkcJv7geGoO6ObHn-91">
          <mxGeometry relative="1" as="geometry" />
        </mxCell>
        <mxCell id="IjonZkcJv7geGoO6ObHn-81" value="微服务A" style="rounded=1;whiteSpace=wrap;html=1;" parent="1" vertex="1">
          <mxGeometry x="610" y="253.75" width="100" height="60" as="geometry" />
        </mxCell>
        <mxCell id="IjonZkcJv7geGoO6ObHn-83" style="edgeStyle=orthogonalEdgeStyle;rounded=0;orthogonalLoop=1;jettySize=auto;html=1;entryX=0;entryY=0.5;entryDx=0;entryDy=0;entryPerimeter=0;" parent="1" source="IjonZkcJv7geGoO6ObHn-78" target="IjonZkcJv7geGoO6ObHn-79" edge="1">
          <mxGeometry relative="1" as="geometry" />
        </mxCell>
        <mxCell id="Mo8PvDtuYaeKryjOyZzO-56" style="edgeStyle=orthogonalEdgeStyle;rounded=0;orthogonalLoop=1;jettySize=auto;html=1;entryX=0;entryY=0.5;entryDx=0;entryDy=0;" edge="1" parent="1" source="IjonZkcJv7geGoO6ObHn-90" target="IjonZkcJv7geGoO6ObHn-81">
          <mxGeometry relative="1" as="geometry" />
        </mxCell>
        <mxCell id="IjonZkcJv7geGoO6ObHn-90" value="&lt;div&gt;&lt;span style=&quot;background-color: transparent;&quot;&gt;熔断限流&lt;br&gt;&lt;/span&gt;Sentinel&lt;br&gt;&lt;/div&gt;" style="whiteSpace=wrap;html=1;aspect=fixed;" parent="1" vertex="1">
          <mxGeometry x="414" y="240" width="87.5" height="87.5" as="geometry" />
        </mxCell>
        <mxCell id="IjonZkcJv7geGoO6ObHn-91" value="微服务B" style="rounded=1;whiteSpace=wrap;html=1;" parent="1" vertex="1">
          <mxGeometry x="800" y="253.75" width="100" height="60" as="geometry" />
        </mxCell>
        <mxCell id="IjonZkcJv7geGoO6ObHn-95" value="熔断降级" style="text;strokeColor=none;align=center;fillColor=none;html=1;verticalAlign=middle;whiteSpace=wrap;rounded=0;" parent="1" vertex="1">
          <mxGeometry x="533.75" y="257.5" width="50" height="22.5" as="geometry" />
        </mxCell>
        <mxCell id="Mo8PvDtuYaeKryjOyZzO-53" style="edgeStyle=orthogonalEdgeStyle;rounded=0;orthogonalLoop=1;jettySize=auto;html=1;entryX=0.5;entryY=1;entryDx=0;entryDy=0;" edge="1" parent="1" source="IjonZkcJv7geGoO6ObHn-96" target="IjonZkcJv7geGoO6ObHn-91">
          <mxGeometry relative="1" as="geometry" />
        </mxCell>
        <mxCell id="Mo8PvDtuYaeKryjOyZzO-54" style="edgeStyle=orthogonalEdgeStyle;rounded=0;orthogonalLoop=1;jettySize=auto;html=1;entryX=1;entryY=0.75;entryDx=0;entryDy=0;" edge="1" parent="1" source="IjonZkcJv7geGoO6ObHn-96" target="IjonZkcJv7geGoO6ObHn-81">
          <mxGeometry relative="1" as="geometry">
            <Array as="points">
              <mxPoint x="770" y="430" />
              <mxPoint x="770" y="299" />
            </Array>
          </mxGeometry>
        </mxCell>
        <mxCell id="IjonZkcJv7geGoO6ObHn-96" value="分布式追踪&lt;br&gt;Sleuth/Zipkin" style="shape=step;perimeter=stepPerimeter;whiteSpace=wrap;html=1;fixedSize=1;direction=east;" parent="1" vertex="1">
          <mxGeometry x="788.75" y="395" width="122.5" height="70" as="geometry" />
        </mxCell>
        <mxCell id="Mo8PvDtuYaeKryjOyZzO-1" value="Config Server&lt;br&gt;Git/SVN&lt;span style=&quot;background-color: transparent;&quot;&gt;配置&lt;/span&gt;" style="whiteSpace=wrap;html=1;shape=mxgraph.basic.document" vertex="1" parent="1">
          <mxGeometry x="780" y="90" width="105" height="80" as="geometry" />
        </mxCell>
        <mxCell id="Mo8PvDtuYaeKryjOyZzO-3" style="edgeStyle=orthogonalEdgeStyle;rounded=0;orthogonalLoop=1;jettySize=auto;html=1;entryX=1;entryY=0.5;entryDx=0;entryDy=0;entryPerimeter=0;" edge="1" parent="1" source="Mo8PvDtuYaeKryjOyZzO-1" target="IjonZkcJv7geGoO6ObHn-79">
          <mxGeometry relative="1" as="geometry" />
        </mxCell>
        <mxCell id="Mo8PvDtuYaeKryjOyZzO-7" value="推送配置" style="text;strokeColor=none;align=center;fillColor=none;html=1;verticalAlign=middle;whiteSpace=wrap;rounded=0;" vertex="1" parent="1">
          <mxGeometry x="780" y="182.5" width="55" height="20" as="geometry" />
        </mxCell>
        <mxCell id="Mo8PvDtuYaeKryjOyZzO-11" value="收集Span日志" style="text;strokeColor=none;align=center;fillColor=none;html=1;verticalAlign=middle;whiteSpace=wrap;rounded=0;" vertex="1" parent="1">
          <mxGeometry x="850" y="350" width="80" height="17.5" as="geometry" />
        </mxCell>
        <mxCell id="Mo8PvDtuYaeKryjOyZzO-12" value="数据库/&lt;br&gt;外部服务" style="shape=cylinder3;whiteSpace=wrap;html=1;boundedLbl=1;backgroundOutline=1;size=15;" vertex="1" parent="1">
          <mxGeometry x="1000" y="243.75" width="60" height="80" as="geometry" />
        </mxCell>
        <mxCell id="Mo8PvDtuYaeKryjOyZzO-13" style="edgeStyle=orthogonalEdgeStyle;rounded=0;orthogonalLoop=1;jettySize=auto;html=1;entryX=0;entryY=0.5;entryDx=0;entryDy=0;entryPerimeter=0;" edge="1" parent="1" source="IjonZkcJv7geGoO6ObHn-91" target="Mo8PvDtuYaeKryjOyZzO-12">
          <mxGeometry relative="1" as="geometry" />
        </mxCell>
        <mxCell id="Mo8PvDtuYaeKryjOyZzO-50" style="edgeStyle=orthogonalEdgeStyle;rounded=0;orthogonalLoop=1;jettySize=auto;html=1;entryX=0.5;entryY=1;entryDx=0;entryDy=0;" edge="1" parent="1" source="Mo8PvDtuYaeKryjOyZzO-14" target="IjonZkcJv7geGoO6ObHn-81">
          <mxGeometry relative="1" as="geometry" />
        </mxCell>
        <mxCell id="Mo8PvDtuYaeKryjOyZzO-14" value="监控告警" style="shape=process;whiteSpace=wrap;html=1;backgroundOutline=1;" vertex="1" parent="1">
          <mxGeometry x="600" y="400" width="120" height="60" as="geometry" />
        </mxCell>
        <mxCell id="Mo8PvDtuYaeKryjOyZzO-19" value="采集指标" style="text;strokeColor=none;align=center;fillColor=none;html=1;verticalAlign=middle;whiteSpace=wrap;rounded=0;" vertex="1" parent="1">
          <mxGeometry x="660" y="347.5" width="50" height="20" as="geometry" />
        </mxCell>
        <mxCell id="Mo8PvDtuYaeKryjOyZzO-28" value="HTTP请求" style="text;strokeColor=none;align=center;fillColor=none;html=1;verticalAlign=middle;whiteSpace=wrap;rounded=0;" vertex="1" parent="1">
          <mxGeometry x="290" y="112.5" width="66.25" height="15" as="geometry" />
        </mxCell>
        <mxCell id="Mo8PvDtuYaeKryjOyZzO-29" value="服务发现查询" style="text;strokeColor=none;align=center;fillColor=none;html=1;verticalAlign=middle;whiteSpace=wrap;rounded=0;" vertex="1" parent="1">
          <mxGeometry x="510" y="110" width="77.5" height="20" as="geometry" />
        </mxCell>
        <mxCell id="Mo8PvDtuYaeKryjOyZzO-30" style="edgeStyle=orthogonalEdgeStyle;rounded=0;orthogonalLoop=1;jettySize=auto;html=1;entryX=0.5;entryY=0;entryDx=0;entryDy=0;entryPerimeter=0;exitX=0.472;exitY=0.004;exitDx=0;exitDy=0;exitPerimeter=0;" edge="1" parent="1" source="IjonZkcJv7geGoO6ObHn-78" target="Mo8PvDtuYaeKryjOyZzO-1">
          <mxGeometry relative="1" as="geometry" />
        </mxCell>
        <mxCell id="Mo8PvDtuYaeKryjOyZzO-31" value="获取配置" style="text;strokeColor=none;align=center;fillColor=none;html=1;verticalAlign=middle;whiteSpace=wrap;rounded=0;" vertex="1" parent="1">
          <mxGeometry x="600" y="50" width="51.25" height="20" as="geometry" />
        </mxCell>
        <mxCell id="Mo8PvDtuYaeKryjOyZzO-35" value="Feign调用" style="text;strokeColor=none;align=center;fillColor=none;html=1;verticalAlign=middle;whiteSpace=wrap;rounded=0;" vertex="1" parent="1">
          <mxGeometry x="723.75" y="260" width="65" height="20" as="geometry" />
        </mxCell>
        <mxCell id="Mo8PvDtuYaeKryjOyZzO-36" value="数据操作" style="text;strokeColor=none;align=center;fillColor=none;html=1;verticalAlign=middle;whiteSpace=wrap;rounded=0;" vertex="1" parent="1">
          <mxGeometry x="920" y="262.5" width="55" height="17.5" as="geometry" />
        </mxCell>
        <mxCell id="Mo8PvDtuYaeKryjOyZzO-37" value="" style="html=1;verticalAlign=bottom;endArrow=open;dashed=1;endSize=8;curved=0;rounded=0;exitX=-0.026;exitY=0.623;exitDx=0;exitDy=0;exitPerimeter=0;entryX=0.994;entryY=0.639;entryDx=0;entryDy=0;entryPerimeter=0;" edge="1" parent="1" source="IjonZkcJv7geGoO6ObHn-79" target="IjonZkcJv7geGoO6ObHn-78">
          <mxGeometry relative="1" as="geometry">
            <mxPoint x="590" y="140" as="sourcePoint" />
            <mxPoint x="500" y="140" as="targetPoint" />
          </mxGeometry>
        </mxCell>
        <mxCell id="Mo8PvDtuYaeKryjOyZzO-38" value="返回实例列表" style="text;strokeColor=none;align=center;fillColor=none;html=1;verticalAlign=middle;whiteSpace=wrap;rounded=0;" vertex="1" parent="1">
          <mxGeometry x="513.75" y="145" width="73.75" height="17.5" as="geometry" />
        </mxCell>
        <mxCell id="Mo8PvDtuYaeKryjOyZzO-40" value="心跳注册" style="text;strokeColor=none;align=center;fillColor=none;html=1;verticalAlign=middle;whiteSpace=wrap;rounded=0;" vertex="1" parent="1">
          <mxGeometry x="610" y="210" width="50" height="20" as="geometry" />
        </mxCell>
        <mxCell id="Mo8PvDtuYaeKryjOyZzO-55" style="edgeStyle=orthogonalEdgeStyle;rounded=0;orthogonalLoop=1;jettySize=auto;html=1;entryX=0.071;entryY=0.989;entryDx=0;entryDy=0;entryPerimeter=0;exitX=0.5;exitY=0;exitDx=0;exitDy=0;" edge="1" parent="1" source="Mo8PvDtuYaeKryjOyZzO-14" target="IjonZkcJv7geGoO6ObHn-91">
          <mxGeometry relative="1" as="geometry">
            <Array as="points">
              <mxPoint x="660" y="370" />
              <mxPoint x="807" y="370" />
            </Array>
          </mxGeometry>
        </mxCell>
        <mxCell id="Mo8PvDtuYaeKryjOyZzO-57" style="edgeStyle=orthogonalEdgeStyle;rounded=0;orthogonalLoop=1;jettySize=auto;html=1;entryX=0.896;entryY=-0.015;entryDx=0;entryDy=0;entryPerimeter=0;exitX=0.5;exitY=1;exitDx=0;exitDy=0;exitPerimeter=0;" edge="1" parent="1" source="Mo8PvDtuYaeKryjOyZzO-1" target="IjonZkcJv7geGoO6ObHn-81">
          <mxGeometry relative="1" as="geometry">
            <Array as="points">
              <mxPoint x="833" y="200" />
              <mxPoint x="700" y="200" />
            </Array>
          </mxGeometry>
        </mxCell>
      </root>
    </mxGraphModel>
  </diagram>
</mxfile>
